<svg xmlns="http://www.w3.org/2000/svg" width="753.298" height="488.196" viewBox="0 0 753.298 488.196">
  <g id="Group_14137" data-name="Group 14137" transform="translate(-1082.022 -275.845)">
    <path id="Path_2109" data-name="Path 2109" d="M1278.217,1088.157c-1.434-1.2-3.168-.655-8.148-2.963a30.53,30.53,0,0,0-4.636-1.385.571.571,0,0,1-.437-.414c-1.514-5.726-8.143-32.2-8.871-39.836-.745-7.807-5.78-40.906-6.548-45.938a.576.576,0,0,0-.727-.467l-14.46,4.03a.577.577,0,0,0-.408.683c.894,3.945,6.454,28.716,8.087,41.248,1.3,9.994,16.191,42.058,16.49,44.108a.137.137,0,0,0,.008.057,1.254,1.254,0,0,0,1.242,1.074h16.12C1276.54,1088.371,1278.668,1088.531,1278.217,1088.157Z" transform="translate(172.696 -503.238)" fill="#ffe3cb" stroke="#263238" stroke-width="1"/>
    <path id="Path_2110" data-name="Path 2110" d="M1237.061,912.147c-7.7-23.35-16.306-22.356-16.306-22.356l6.656,49.093c4.753-1.3,10.943-4.192,15.692-5.534a214.023,214.023,0,0,0-6.043-21.2Z" transform="translate(181.663 -430.365)" fill="#fff" stroke="#263238" stroke-width="1"/>
    <path id="Path_2111" data-name="Path 2111" d="M1148.479,725.273c-2.356-15.357-16.25-26.4-30.781-18.948a34.491,34.491,0,0,0-9.949,7.973c-6.1,7.832-7.663,17.506-13.965,25.111a62.249,62.249,0,0,0,8.45,5.367l3.926-5.233-1.351,6.531c9.755,4.668,23.532,8.519,42.375,8.416a81.45,81.45,0,0,0,1.3-29.216Z" transform="translate(267.855 -304.211)" fill="#263238"/>
    <path id="Path_2112" data-name="Path 2112" d="M1201.535,1379.944c-2.218-1.635-4.007-2.714-11.091-6.149-.461-.224-2.144-1.3-2.751-1.668a21.365,21.365,0,0,1-4.413-3.911c-1.27-1.417-1.875-5.958-2.161-9.577.729-8.083,12.446-137.731,14.915-151.772,2.551-14.488-1.335-36.588-1.335-36.588l-9.044-3.41-17.167,59.5,1.354,45.292s-4.037,13.055-4.547,20.861,5.835,71.126,5.835,71.126h0a33.067,33.067,0,0,1-.34,5.592c-.466,2.37-3.061,7.244-1.871,9.473a5.982,5.982,0,0,0,2.551,2.787l30.848.5C1204,1382.025,1202.89,1380.942,1201.535,1379.944Z" transform="translate(219.329 -618.458)" fill="#ffe3cb" stroke="#263238" stroke-width="1"/>
    <path id="Path_2113" data-name="Path 2113" d="M1034.86,1152.422s-10.711,16.159-13.262,29.533,1.871,54.474-3.034,72c-2.656,9.482-12.722,24.137-14.252,36.4s-6.855,47.643-6.855,47.643h0c-.806,3.715-2.068,8.309-3.705,10.445a30.817,30.817,0,0,0-4.036,5.323c-1.872,3.674-.837,9.154.544,12.169.711,1.548-.05,1.541,1.563,2.042a9.9,9.9,0,0,0,11.894-5.6,28.482,28.482,0,0,0,2.334-10.286,48.048,48.048,0,0,1,1.687-10.873h0l34.24-83.992,24.788-72.486,6.35-37.337Z" transform="translate(339.187 -605.244)" fill="#ffe3cb" stroke="#263238" stroke-width="1"/>
    <path id="Path_2114" data-name="Path 2114" d="M1002.428,1796.014c-7.41,1.355-12.341-2.99-14.907-6.243-1.883,3.685-2.8,9.182-1.422,12.208,1.22,2.667,4.786,2.59,7.594,2.694a7.33,7.33,0,0,0,6.739-4.133,24.821,24.821,0,0,0,2-4.527Z" transform="translate(341.402 -1041.295)" fill="#263238"/>
    <path id="Path_2115" data-name="Path 2115" d="M1194.613,1804.469a27.865,27.865,0,0,1-17.562-.692c-.87,2.471-2.023,5.571-1.412,7.36.749,2.189,1.816,2.684,2.757,2.708,7.452.2,27.3.464,32.979.537a.93.93,0,0,0,.72-1.529C1210.687,1811.166,1195.221,1804.841,1194.613,1804.469Z" transform="translate(212.406 -1050.802)" fill="#263238"/>
    <path id="Path_2116" data-name="Path 2116" d="M1102.129,1253.57q.96.065,1.932.118l.1.006q.948.057,1.914.108h.118q.963.05,1.928.091h.1q.984.041,1.97.075c7.312.237,16.344.147,22.139-.838,2.954-29.575,4.055-56.567,5.149-62.541,2.653-14.488-2.311-37.356-2.311-37.356l-2.371-.426,1.5-8.469-39.782,5.015s-11.142,16.159-13.791,29.533,1.946,54.474-3.155,72C1077.565,1250.9,1088.922,1252.671,1102.129,1253.57Z" transform="translate(278.864 -603.172)" fill="#bbdefb" stroke="#000" stroke-width="1"/>
    <path id="Path_2117" data-name="Path 2117" d="M1118.678,876.331s-12.5-1.633-18.108,4.5,10.761,55.346,11.781,63.147-5.2,28.544-5.2,28.544,33.318,6.719,42.839.4c0,0,1.021-56.1,0-61.67s-9.521-28.235-11.562-30.462S1118.678,876.331,1118.678,876.331Z" transform="translate(264.04 -421.101)" fill="#fff" stroke="#263238" stroke-width="1"/>
    <path id="Path_2118" data-name="Path 2118" d="M1163.125,816.943s-.073.42-.205,1.131c-.632,3.417-3.068,14.755-4.713,17.872-1.988,3.767,6.806,15.78,15.27,14.314,2.52-.436-2.134-11.038-1.906-12.161.428-2.15,1.007-5.083,1.6-8.09.334-1.7.674-3.416.992-5.032.906-4.594,1.643-8.35,1.643-8.35Z" transform="translate(224.316 -380.704)" fill="#ffe3cb" stroke="#263238" stroke-width="1"/>
    <path id="Path_2120" data-name="Path 2120" d="M1171.311,727.575a11.417,11.417,0,0,0-9.725,4.165c-3.747,4.86-7.786,19.88,1.523,28.046s18.506-1.077,19.87-10.88S1184.871,727.221,1171.311,727.575Z" transform="translate(224.666 -320.229)" fill="#ffe3cb" stroke="#263238" stroke-width="1"/>
    <path id="Path_2121" data-name="Path 2121" d="M1234.818,782.3c-1.111,2.164-2.976,3.364-4.166,2.678s-1.253-3-.142-5.162,2.976-3.364,4.166-2.678S1235.928,780.132,1234.818,782.3Z" transform="translate(175.58 -353.764)" fill="#ffe3cb"/>
    <path id="Path_2122" data-name="Path 2122" d="M1160.163,722.323s-7.987,14.285-13.7,14.945S1140,745.52,1140,745.52s2.042-17.49,7.7-20.861S1160.163,722.323,1160.163,722.323Z" transform="translate(236.483 -316.587)" fill="#263238"/>
    <path id="Path_2123" data-name="Path 2123" d="M1152.157,771.837c.465,2.537-.474,4.86-2.087,5.2s-3.306-1.453-3.77-3.991.474-4.86,2.087-5.2S1151.693,769.3,1152.157,771.837Z" transform="translate(232.286 -347.563)" fill="#ffe3cb"/>
    <path id="Path_2125" data-name="Path 2125" d="M899.747,988.594c-.526-1.252,5.633-2.674,5.883-3.99s-7.941-.9-8.309-2.023c-.671-2.061,8.948-1,8.7-1.97s-10.114-2.548-9.168-4.3,10.06,2.706,10.254,1.549-8.847-3.378-8.845-5.89c0-1.342,14.973,5.756,16.6,4.924s-2.244-6.9-.966-7.912,5.969,12.446,6.921,12.844,21.2,10.333,28.265,11.672c.7-2.382,6-15.115,6.6-17.365,4.076,2.534,8.641,2.857,12.828,5.137-2.461,7.5-11.36,26.129-13.336,27.174-6.016,3.184-31.2-15.172-36.192-18.275s-7.664-1.828-10.966-2.7S900.274,989.845,899.747,988.594Z" transform="translate(401.58 -484.092)" fill="#ffe3cb" stroke="#263238" stroke-width="1"/>
    <path id="Path_2126" data-name="Path 2126" d="M1077.879,936.942s12.9-25.946,13.287-34.985-8.622-19.148-16.439-17.4S1060.665,928,1060.665,928Z" transform="translate(290.335 -426.679)" fill="#fff" stroke="#263238" stroke-width="1"/>
    <g id="Group_6" data-name="Group 6" transform="translate(1253.091 571.592)">
      <path id="Path_2130" data-name="Path 2130" d="M790.471,1246.459c.511-.772-.741-2.1-1.68-3.1-1.041-1.1-7.377-3.911-8.456-4.254s-10.362.882-13.922,2.015a12.566,12.566,0,0,1-5.893.63c-.929-.2-2.326-.466-3.41-.7l-1.3,8.263c8.333-.029,16.047.666,16.831.653,2.5-.04,7.112-2.618,8.179-2.993a7.477,7.477,0,0,1,4.662.641c1.442.692,5.644,2.345,6.354,1.976S790.471,1246.459,790.471,1246.459Z" transform="translate(-755.806 -1239.048)" fill="#ffcfa7"/>
    </g>
    <path id="Path_2131" data-name="Path 2131" d="M615.794,1132.7l-46.846-11.753a390.428,390.428,0,0,0-25.394-40.831c-4.938,4.887-7.682,12.4-12.654,17.234L557.108,1133c1.33,1.471,59.571,7.876,59.571,7.876Z" transform="translate(649.952 -559.563)" fill="#ffcfa7" stroke="#263238" stroke-width="1"/>
    <path id="Path_2132" data-name="Path 2132" d="M539.02,1099.535s-13.474-18-18.395-26.519,3.351-2.973,11.8-5.215c3.2-.849.548-18.318,6.6-12.223,9.922,10,19.87,31.658,19.87,31.658Z" transform="translate(657.928 -542.036)" fill="#1b2d48"/>
    <path id="Path_2135" data-name="Path 2135" d="M955.311,349.432H843.621a9.878,9.878,0,0,0-9.862,9.9v65.293a9.878,9.878,0,0,0,9.862,9.9h78.151c5.024,7.035,14.133,19.633,14.935,19.633.753,0-.7-11.9-1.718-19.633h20.32a9.878,9.878,0,0,0,9.862-9.9V359.328a9.878,9.878,0,0,0-9.859-9.9Z" transform="translate(444.365 -63.561)" fill="#fff"/>
    <rect id="Rectangle_378" data-name="Rectangle 378" width="36.5" height="4.472" rx="0.857" transform="translate(1291.632 304.828)" fill="#274169"/>
    <rect id="Rectangle_379" data-name="Rectangle 379" width="22.261" height="4.472" rx="0.857" transform="translate(1291.632 319.435)" fill="#274169"/>
    <rect id="Rectangle_380" data-name="Rectangle 380" width="26.299" height="4.472" rx="0.857" transform="translate(1319.979 319.435)" fill="#274169"/>
    <rect id="Rectangle_381" data-name="Rectangle 381" width="42.403" height="4.472" rx="0.857" transform="translate(1353.448 319.435)" fill="#274169"/>
    <rect id="Rectangle_382" data-name="Rectangle 382" width="56.324" height="4.472" rx="0.857" transform="translate(1339.706 304.828)" fill="#274169"/>
    <rect id="Rectangle_383" data-name="Rectangle 383" width="104.397" height="4.472" rx="0.857" transform="translate(1291.632 348.043)" fill="#274169"/>
    <rect id="Rectangle_384" data-name="Rectangle 384" width="47.36" height="4.472" rx="0.857" transform="translate(1291.632 333.907)" fill="#274169"/>
    <path id="Rectangle_385" data-name="Rectangle 385" d="M1.016,0H46.774a1.017,1.017,0,0,1,1.017,1.017V3.456a1.016,1.016,0,0,1-1.016,1.016H1.016A1.016,1.016,0,0,1,0,3.456V1.016A1.016,1.016,0,0,1,1.016,0Z" transform="translate(1348.238 333.907)" fill="#274169"/>
    <path id="Path_2136" data-name="Path 2136" d="M1603.642,318.219h103.114a9.878,9.878,0,0,1,9.862,9.9v65.293a9.878,9.878,0,0,1-9.862,9.9h-69.577c-5.024,7.035-14.134,19.632-14.935,19.632-.753,0,.7-11.9,1.719-19.632h-20.321a9.879,9.879,0,0,1-9.863-9.9V328.115a9.878,9.878,0,0,1,9.863-9.9Z" transform="translate(-71.551 -42.374)" fill="#fff"/>
    <path id="Path_2137" data-name="Path 2137" d="M1833.905,422.723h-50.13a.3.3,0,0,0-.3.3v3.864a.3.3,0,0,0,.3.3h50.129a.3.3,0,0,0,.3-.3v-3.864A.3.3,0,0,0,1833.905,422.723Z" transform="translate(-200.32 -113.313)" fill="#274169"/>
    <rect id="Rectangle_386" data-name="Rectangle 386" width="42.403" height="4.472" rx="0.857" transform="translate(1575.98 313.882) rotate(180)" fill="#274169"/>
    <rect id="Rectangle_387" data-name="Rectangle 387" width="56.324" height="4.472" rx="2" transform="translate(1589.722 299.276) rotate(180)" fill="#274169"/>
    <path id="Rectangle_388" data-name="Rectangle 388" d="M1.017,0h32.6a1.015,1.015,0,0,1,1.015,1.015V3.456a1.016,1.016,0,0,1-1.016,1.016H1.017A1.017,1.017,0,0,1,0,3.456V1.017A1.017,1.017,0,0,1,1.017,0Z" transform="translate(1633.889 299.276) rotate(180)" fill="#274169"/>
    <path id="Path_2138" data-name="Path 2138" d="M1628.566,516.266h100.491V511.8H1628.566Z" transform="translate(-95.168 -173.776)" fill="#274169"/>
    <rect id="Rectangle_389" data-name="Rectangle 389" width="47.791" height="4.472" transform="translate(1633.889 328.354) rotate(180)" fill="#274169"/>
    <rect id="Rectangle_390" data-name="Rectangle 390" width="47.791" height="4.472" transform="translate(1581.367 328.354) rotate(180)" fill="#274169"/>
    <path id="Path_2139" data-name="Path 2139" d="M633.344,1768.782s-.711,11.832-.718,11.853a64.8,64.8,0,0,0-1.3,6.58c0,5.13,24.36-4.355,18.9-6.628-.494-.206-3.082-1.761-3.245-3.507-.25-2.691-.885-8.132-.885-8.132Z" transform="translate(581.78 -1027.047)" fill="#ffe3cb" stroke="#263238" stroke-width="1"/>
    <path id="Path_2140" data-name="Path 2140" d="M645.346,1801.945s-5.719,1.569-8.653,1.96-6.791-2.911-8.862-2.015c-2.281.983-2.19,9.823-2.19,9.823s30.67,2.516,39.294-.086C668.353,1810.592,657.037,1805.6,645.346,1801.945Z" transform="translate(585.639 -1049.415)" fill="#263238"/>
    <path id="Path_2141" data-name="Path 2141" d="M762.1,1764.962s-.711,11.832-.718,11.853a64.86,64.86,0,0,0-1.3,6.58c0,5.13,24.36-4.355,18.9-6.628-.494-.206-4.183-.858-4.345-2.608-.25-2.691-.718-11.01-.718-11.01Z" transform="translate(494.379 -1023.227)" fill="#ffe3cb" stroke="#263238" stroke-width="1"/>
    <path id="Path_2142" data-name="Path 2142" d="M774.1,1801.945s-5.719,1.569-8.653,1.96-6.791-2.911-8.862-2.015c-2.281.983-2.192,9.823-2.192,9.823s30.67,2.516,39.294-.086C797.108,1810.592,785.791,1805.6,774.1,1801.945Z" transform="translate(498.238 -1049.415)" fill="#263238"/>
    <path id="Path_2143" data-name="Path 2143" d="M514.921,1373.621l58.229.251s26.3-.69,30.462,8.406,3.17,124.614,3.17,124.614-14.04,2.087-14.758,1.317l-15.815-69.161a48.731,48.731,0,0,1-1.7-18.064l1.51-16.086L552,1406.126s-27.239-.433-36.219-9.467S514.921,1373.621,514.921,1373.621Z" transform="translate(663.084 -758.803)" fill="#bbdefb" stroke="#000" stroke-width="1"/>
    <path id="Path_2144" data-name="Path 2144" d="M397.738,1353.628l62.61,3.84s26.945,2.189,31.1,11.285-2.654,125.606-2.654,125.606-15.63.964-15.6.279c.038-.815-6.415-53.368-9.993-70.011a58.432,58.432,0,0,1-1.185-16.086l2.261-18.652s-58.155-.331-61.043-3.235C394.26,1377.621,397.738,1353.628,397.738,1353.628Z" transform="translate(740.795 -745.231)" fill="#bbdefb" stroke="#000" stroke-width="1"/>
    <path id="Path_2145" data-name="Path 2145" d="M454.7,1043.705c-8.715-2.642-25.043-4.024-25.043-4.024s-10.235-1.659-13.561-.948c-4.9,1.06-14.085,1.541-14.935,22.792-.612,15.205-2.343,52.822-4.079,78.224l62.319,3.782C456.575,1104.448,462.948,1046.2,454.7,1043.705Z" transform="translate(740.794 -531.35)" fill="#fff" stroke="#263238" stroke-width="1"/>
    <path id="Path_2146" data-name="Path 2146" d="M504.355,985.524l-9.788,18s7.373,13.141,14.342,13.492c5.852.294,4.932-8.356,4.932-8.356s.921-11.184,3.729-16.2S504.355,985.524,504.355,985.524Z" transform="translate(674.616 -495.354)" fill="#ffe3cb" stroke="#263238" stroke-width="1"/>
    <g id="Group_8" data-name="Group 8" transform="translate(1167.794 447.447)">
      <path id="Path_2148" data-name="Path 2148" d="M526.071,884.206c-.4-.288-10.057,22.212-5.87,30.308s15.249,13.441,20.835,9.537c6.18-4.318,12.939-29.508,5.486-38.711S526.071,884.206,526.071,884.206Z" transform="translate(-509.865 -871.803)" fill="#ffe3cb" stroke="#263238" stroke-width="1"/>
      <path id="Path_2149" data-name="Path 2149" d="M526.842,852.523a26.787,26.787,0,0,0-15.7,3.956c-3.369-.523-8.3.047-14.99,6.353-8.222,7.754-6.938,19.236-1.795,26.125s3.424,12.716,3.424,12.716l1.878-2.739a17.561,17.561,0,0,0,2.8-6.9,14.452,14.452,0,0,0,.133-4.581c-.634-3.821,4.952-4.689,7.126-7.112,1.675-1.869,3.105-6.813,5.79-9.927l2.776-2.174s5.656-2.324,9.922-.038S536.582,853.208,526.842,852.523Z" transform="translate(-490.245 -852.474)" fill="#263238"/>
      <path id="Path_2150" data-name="Path 2150" d="M533.066,939.2c-.746,2.866-2.693,4.84-4.348,4.409s-2.391-3.1-1.645-5.967,2.693-4.84,4.348-4.409S533.812,936.334,533.066,939.2Z" transform="translate(-515.046 -907.265)" fill="#ffe3cb"/>
    </g>
    <path id="Path_2157" data-name="Path 2157" d="M533,1144.025l-48.137-12.732s-14.734-16.657-28.583-35.824c-4.949,4.091-7.054,14.893-12.031,18.938l31.785,31.637c1.1,1.464,54.524,5.248,54.524,5.248Z" transform="translate(708.775 -569.987)" fill="#ffe3cb" stroke="#263238" stroke-width="1"/>
    <path id="Path_2158" data-name="Path 2158" d="M432.221,1095.856s-16.357-20.8-20.357-28.962.275-21.092,8.207-22.623,30.9,35.775,30.9,35.775Z" transform="translate(731.79 -535.203)" fill="#1b2d48" stroke="#263238" stroke-width="1"/>
    <g id="Group_12" data-name="Group 12" transform="translate(1238.552 573.139)">
      <path id="Path_2159" data-name="Path 2159" d="M743.614,1251.287c.514-.684-.568-1.979-1.38-2.951-.9-1.078-6.59-4.016-7.567-4.385s-9.608.237-12.955,1.089a11.616,11.616,0,0,1-5.473.258c-.846-.237-2.119-.558-3.108-.829l-2.577,7.491c7.689.433,15.683,1.556,16.412,1.588,2.313.1,6.708-2.024,7.713-2.311a6.911,6.911,0,0,1,4.267.849c1.292.718,5.079,2.474,5.753,2.173S743.614,1251.287,743.614,1251.287Z" transform="translate(-710.555 -1243.84)" fill="#ffe3cb" stroke="#263238" stroke-width="1"/>
    </g>
    <g id="Group_14" data-name="Group 14" transform="translate(1082.022 539.595)">
      <rect id="Rectangle_396" data-name="Rectangle 396" width="6.135" height="89.726" transform="translate(78.946 122.418)" fill="#263238"/>
      <path id="Path_2179" data-name="Path 2179" d="M371.261,1812.382h60.964a5.084,5.084,0,0,1,5.084,5.084h0a.889.889,0,0,1-.889.889H367.066a.889.889,0,0,1-.889-.889h0a5.084,5.084,0,0,1,5.084-5.083Z" transform="translate(-320.254 -1596.238)" fill="#263238"/>
      <path id="Path_2180" data-name="Path 2180" d="M459.051,1799.926h7.467a4,4,0,0,1,4,4h0a4,4,0,0,1-4,4h-7.467a4,4,0,0,1-4-4h0A4,4,0,0,1,459.051,1799.926Z" transform="translate(-380.584 -1587.783)" fill="#263238"/>
      <path id="Path_2181" data-name="Path 2181" d="M421.322,1389.865l-4.195-17.462a28.329,28.329,0,0,0-26.3-21.6l-53.129-2.148-1.64-5.409,54.983,2.223a33.687,33.687,0,0,1,31.273,25.691l4.458,18.556C425.265,1389.774,423.425,1389.828,421.322,1389.865Z" transform="translate(-299.809 -1277.777)" fill="#263238"/>
      <path id="Path_2182" data-name="Path 2182" d="M273.449,1242.2s72.993,1.249,80.6,0,10.9,8.3,8.632,13.288-8.519,6.928-17.719,7.383-85.751,2.608-87.91.568c-1.763-1.67-24.969-81.009-33.414-110.023a10.944,10.944,0,0,1,7.437-13.56h0a10.953,10.953,0,0,1,13.567,7.332Z" transform="translate(-223.201 -1139.409)" fill="#fff"/>
    </g>
    <g id="Group_15" data-name="Group 15" transform="translate(1244.229 532.755)">
      <path id="Path_2183" data-name="Path 2183" d="M846.813,1118.113H785.919a3.971,3.971,0,0,0-3.675,2.465l-18.75,45.729h-33.57a1.7,1.7,0,0,0-1.7,1.7h0a1.7,1.7,0,0,0,1.7,1.7h95.547a6.671,6.671,0,0,0,6.085-3.938l18.879-42.057a3.971,3.971,0,0,0-3.623-5.6Z" transform="translate(-728.225 -1118.113)" fill="#bbdefb" stroke="#263238" stroke-width="1"/>
      <path id="Path_2184" data-name="Path 2184" d="M981.42,1191.666a3.351,3.351,0,1,1-2.512-4.37,3.582,3.582,0,0,1,2.512,4.37Z" transform="translate(-895.613 -1165.038)" fill="#fff" stroke="#263238" stroke-width="1"/>
    </g>
    <g id="Group_16" data-name="Group 16" transform="translate(1564.463 532.755)">
      <path id="Path_2185" data-name="Path 2185" d="M1729.247,1118.113h60.894a3.971,3.971,0,0,1,3.675,2.465l18.75,45.729h33.571a1.7,1.7,0,0,1,1.7,1.7h0a1.7,1.7,0,0,1-1.7,1.7h-95.547a6.67,6.67,0,0,1-6.085-3.939l-18.879-42.057a3.971,3.971,0,0,1,3.623-5.6Z" transform="translate(-1725.276 -1118.113)" fill="#bbdefb" stroke="#263238" stroke-width="1"/>
      <path id="Path_2186" data-name="Path 2186" d="M1839.554,1191.666a3.351,3.351,0,1,0,2.511-4.37A3.582,3.582,0,0,0,1839.554,1191.666Z" transform="translate(-1802.797 -1165.038)" fill="#fff"/>
    </g>
    <rect id="Rectangle_397" data-name="Rectangle 397" width="453.796" height="10.21" rx="4.307" transform="translate(1688.096 594.555) rotate(180)" fill="#263238"/>
    <path id="Path_2187" data-name="Path 2187" d="M2006.623,1478.5h7.266l-15.653-167.966h-7.266Z" transform="translate(-341.173 -715.976)" fill="#263238"/>
    <path id="Path_2188" data-name="Path 2188" d="M1832.126,1478.5h-7.266l15.655-167.966h7.266Z" transform="translate(-228.416 -715.976)" fill="#263238"/>
    <path id="Path_2189" data-name="Path 2189" d="M914.239,1478.5h7.266L905.85,1310.531h-7.266Z" transform="translate(400.36 -715.976)" fill="#263238"/>
    <path id="Path_2190" data-name="Path 2190" d="M1624.555,1016.591a10.461,10.461,0,0,1-1.1,2.664c-3.166,5.764-10.513,13.987-10.513,13.987l-5.684-12.8s.927-4.021,2.533-9.767C1615.281,1012.1,1620.51,1012.934,1624.555,1016.591Z" transform="translate(-80.704 -512.425)" fill="#ffe3cb" stroke="#263238" stroke-width="1"/>
    <path id="Path_2191" data-name="Path 2191" d="M1559.66,899.9s31.7,13.65,32.723,13.394c.66-.168,13-20.826,13.134-40.253.062-8.973-9.257-19.766-19.653-17.631-5.234,1.075-5.152,2.531-12.9,13.783S1559.66,899.9,1559.66,899.9Z" transform="translate(-48.392 -406.843)" fill="#274169"/>
    <path id="Path_2192" data-name="Path 2192" d="M1436.092,1756.494s.751,12.446.756,12.474a68.158,68.158,0,0,1,1.365,6.922c0,5.4-25.632-4.582-19.887-6.974.52-.217,3.244-1.854,3.415-3.691.263-2.83.932-8.557.932-8.557Z" transform="translate(48.117 -1018.706)" fill="#ffe3cb"/>
    <path id="Path_2193" data-name="Path 2193" d="M1371.736,1793.249a91.963,91.963,0,0,0,9.264,2.305c3.137.461,7.274-3.422,9.494-2.371,2.443,1.155,2.347,11.547,2.347,11.547s-32.853,2.963-42.091-.1C1347.09,1803.414,1359.211,1797.544,1371.736,1793.249Z" transform="translate(93.87 -1043.486)" fill="#263238"/>
    <path id="Path_2194" data-name="Path 2194" d="M1599.344,1756.494s.751,12.446.756,12.474a68.227,68.227,0,0,1,1.366,6.922c0,5.4-25.632-4.582-19.887-6.974.52-.217,4.051-3.082,4.222-4.913.263-2.83.119-7.335.119-7.335Z" transform="translate(-62.702 -1018.706)" fill="#ffe3cb"/>
    <path id="Path_2195" data-name="Path 2195" d="M1537.967,1793.249a91.915,91.915,0,0,0,9.263,2.305c3.138.461,7.274-3.422,9.494-2.371,2.443,1.155,2.54,11.547,2.54,11.547s-33,3.448-42.284-.1C1513.377,1803.247,1525.442,1797.544,1537.967,1793.249Z" transform="translate(-18.982 -1043.486)" fill="#263238"/>
    <g id="Group_17" data-name="Group 17" transform="translate(1475.6 413.323)">
      <path id="Path_2196" data-name="Path 2196" d="M1501.825,844l-22.574-31.624c-.095-.277-.3-.843-.613-1.709-1.137-3.137-3.5-9.667-5.564-16.164l-.021-.069c-.648-2.27-2.015-6.231-3.347-10.063-1.476-4.26-3.307-9.544-3.371-10.445.057-.154.162-.43.3-.8a72.9,72.9,0,0,0,2.342-9.491c.252-1.422.5-4.86-1.185-4.86-2.648,0-1.385,3.437-2.608,5.587a54.172,54.172,0,0,1-1.835-7.166l-.442-6.723c-.085-.507.454-4.216-1.4-4.216h-.089c-1.668.119-1.631,4.066-2.324,10.735-.219-.768-.439-1.694-.6-2.544a24.392,24.392,0,0,0-.564-3.52c.336-1.859.14-4.79-1.838-4.514-.992.139-.91,4.229-.91,4.229.011.561.069,4.886.039,5.74-.2-1.451-1-7.64-2.55-7.64-1.288,0-1.391,1.667-1.364,2.985.015.78.83,7.486.87,8.266-.607-1.017-1.325-6.927-1.926-6.927-2.51,0-1.6,8.4-.68,10.592a9.767,9.767,0,0,1,.286,1.172,20.623,20.623,0,0,0,2.152,6.251c1.577,2.7,3.752,6.985,4.083,7.642.243,1.339,1,6.156,1.949,12.216.407,2.592.852,5.436,1.317,8.38h.025c.085.638.556,2.663,2.341,10.266,2.444,10.4,2.7,10.854,2.805,11.045,1.061,1.879,25.4,34.932,26.432,36.338l.61.83Z" transform="translate(-1448.617 -746.258)" fill="#ffe3cb" stroke="#263238" stroke-width="1"/>
      <path id="Path_2197" data-name="Path 2197" d="M1483.545,810.644s1.833-4.685,5.1-4.695a3.75,3.75,0,0,0-3.385.58C1483.691,807.766,1483.545,810.644,1483.545,810.644Z" transform="translate(-1472.325 -786.66)" fill="#ffcfa7"/>
    </g>
    <g id="Group_18" data-name="Group 18" transform="translate(1515.268 387.22)">
      <path id="Path_2198" data-name="Path 2198" d="M1594.132,790.468l2.906,18.378s-11.073,8.89-17.528,7.016c-5.416-1.574-1.7-8.653-1.7-8.653s2.885-9.812,2-14.954S1594.132,790.468,1594.132,790.468Z" transform="translate(-1575.135 -749.439)" fill="#ffe3cb" stroke="#263238" stroke-width="1"/>
      <path id="Path_2200" data-name="Path 2200" d="M1605.073,705.866c.456,0-4.377,20.532-11.853,24.062s-18.638,1.691-20.731-3.839c-2.315-6.116,6.13-27.061,16.652-29.722S1605.073,705.866,1605.073,705.866Z" transform="translate(-1572.104 -686.031)" fill="#ffe3cb" stroke="#263238" stroke-width="1"/>
      <path id="Path_2201" data-name="Path 2201" d="M1622.417,665.958a23.556,23.556,0,0,1,9.641,10.651c2.8,1.331,6.2,4.21,7.823,11.971,2,9.537-5.118,16.888-12.668,19.1s-8.716,7.208-8.716,7.208l-.856-5.377s1.68-4.681,4.206-7.024-1.2-5.757-1.523-8.542c-.251-2.144,1.327-6.308.985-9.827,0,0-4.195-6.358-8.33-7.928C1605.93,673.506,1614.75,661.535,1622.417,665.958Z" transform="translate(-1598.104 -664.987)" fill="#263238"/>
      <path id="Path_2202" data-name="Path 2202" d="M1636.784,759c-.978,2.371-.578,4.726.893,5.258s3.456-.958,4.434-3.328.578-4.726-.893-5.258S1637.758,756.628,1636.784,759Z" transform="translate(-1615.648 -726.471)" fill="#ffe3cb"/>
    </g>
    <path id="Path_2203" data-name="Path 2203" d="M1459.116,1010.795l-43.544-7.1s4.955-12.473,6.725-12.473,32.925,13.6,32.925,13.6l2.478,4.978Z" transform="translate(49.417 -499.223)" fill="#ffe3cb" stroke="#263238" stroke-width="1"/>
    <path id="Path_2204" data-name="Path 2204" d="M1549.51,1140.911s4.343,21,2.573,36.923-1.909,72.487-1.909,72.487l6.756,90.5-16.028.348s-19.006-90.458-18.652-88.136-6.373-63.692-6.373-63.692l22.658-50.423Z" transform="translate(-18.671 -599.483)" fill="#bbdefb" stroke="#000" stroke-width="1"/>
    <path id="Path_2205" data-name="Path 2205" d="M1473.427,1127.3s2.833,18.909-.711,27.2-30.366,89.665-30.72,96.3-9.275,79.967-9.275,79.967l-18.638-.524-4.03-81.532,8.443-102.471,8.2-25.908Z" transform="translate(53.163 -586.863)" fill="#bbdefb" stroke="#000" stroke-width="1"/>
    <path id="Path_2207" data-name="Path 2207" d="M1424.895,956.737s-16.476,15.543-23.905,12.89-10.511-11.725,7.629-25C1424.853,932.751,1424.895,956.737,1424.895,956.737Z" transform="translate(63.29 -465.353)" fill="#ffe3cb" stroke="#263238" stroke-width="1"/>
    <path id="Path_2208" data-name="Path 2208" d="M1441.073,909.817c2.446-13.312,20.18-54.736,21.6-62.365.689-3.71,10.254-3.793,19.364-3.308,9.624.512,19.183,1.729,19.183,1.729s8.52,1.4,12.268,4.911,4.741,13.226-.644,31.664C1508.587,897,1503.314,905,1500.7,915.6c-.529,3.556-.981,7.066-1.581,11.164-.959,15.853.011,36.8.011,36.8s-46.378,9.62-63.726-4.978C1435.408,958.582,1438.566,923.455,1441.073,909.817Z" transform="translate(35.952 -399.241)" fill="#fff" stroke="#263238" stroke-width="1"/>
    <path id="Path_2209" data-name="Path 2209" d="M1416.226,882.319s18.2,15.022,19.26,15.022c.684,0,25.97-18.6,31.806-33.882,3.227-8.448-3.542-17.9-11.272-17.868-5.359.021-7.741,1.4-18.361,10.359S1416.226,882.319,1416.226,882.319Z" transform="translate(48.974 -400.364)" fill="#1b2d48"/>
    <path id="Path_2210" data-name="Path 2210" d="M739.741,1478.5h-7.266l15.655-167.966H755.4Z" transform="translate(513.118 -715.976)" fill="#263238"/>
    <path id="Rectangle_398" data-name="Rectangle 398" d="M1.447,0H685.481a1.447,1.447,0,0,1,1.447,1.447h0a1.447,1.447,0,0,1-1.447,1.447H1.447A1.447,1.447,0,0,1,0,1.447H0A1.447,1.447,0,0,1,1.447,0Z" transform="translate(1107.673 761.085)" fill="#fff"/>
    <g id="Group_14136" data-name="Group 14136" transform="translate(67 -125)">
      <path id="Path_3431" d="M2358.227,1246.286a105.318,105.318,0,0,0-3.416,19.315c.166.333.147,1.514-.056,1.2-.037,1.052-1.662.868-1.662-.185.019-.683.037-1.366.074-2.031-3.767-4.69-9.251-7.664-13.683-11.726a25.569,25.569,0,0,1-7.5-11.929c-3.675-12.668-.222-26.074-4.654-38.7-3.8-10.9-10.636-20.35-16.416-30.229-6.094-10.433-10.6-21.4-11.061-33.608-.351-9.362.757-21.827,7.885-28.844,7.553-7.442,16.915-1.865,22.713,4.764,16.768,19.242,24.523,43.58,27.662,68.435,1.736,13.757,3.527,27.606,3.121,41.511A112.372,112.372,0,0,1,2358.227,1246.286Z" transform="translate(-648.323 -491.763)" fill="#fff"/>
      <path id="Path_3432" d="M2346.763,1255.164a237.115,237.115,0,0,0-.462-39c.019-.055.056-.074.056-.147.2-10.544,1.053-21.033.628-31.6a188.927,188.927,0,0,0-4.635-33.885.1.1,0,0,0-.2.037,221.665,221.665,0,0,1,3.675,33.146c.2,5.965.167,11.911-.148,17.875-.111,1.939-.277,3.878-.406,5.835v-.018a208.664,208.664,0,0,0-31.355-82.986c-.222-.351-.831.019-.609.369a216.523,216.523,0,0,1,25.52,61.528c-8.07-14.939-20.239-27.219-29.287-41.585a.08.08,0,0,0-.129.092c8.125,15.992,21.531,28.585,30.081,44.337,1.477,6.426,2.7,12.889,3.6,19.426a215.985,215.985,0,0,1,1.939,26.979q-7.7-13.489-14.034-27.68c-.111-.259-.48-.074-.388.166,3.417,10.082,8.014,20.959,14.44,29.564q.056,9.584-.536,19.149c-1,17.026-3.915,33.83-5.263,50.8a.389.389,0,1,0,.775.074A386.478,386.478,0,0,0,2346.763,1255.164Z" transform="translate(-640.202 -476.284)" fill="#0254ba"/>
      <path id="Path_3433" d="M2319.929,1124.089c-.056-.129-.24-.037-.185.093,3.1,8.6,4.875,17.3,7.109,26.129a.327.327,0,0,0,.646-.092A93.311,93.311,0,0,0,2319.929,1124.089Z" transform="translate(-631.446 -476.502)" fill="#0254ba"/>
      <path id="Path_3434" d="M2390.754,1148a131.611,131.611,0,0,1-7.146,14.7c-5.6,10.175-11.449,19.482-12.5,31.337a72.655,72.655,0,0,1-2.252,15.7,47.315,47.315,0,0,1-6.26,12.28c-6.076,8.845-13.665,16.453-19.278,25.631a107.679,107.679,0,0,0-12.815,30.894c-.129.591-1.071.425-.942-.166a.343.343,0,0,0,.037-.129.168.168,0,0,1-.056-.129c-.886-25.391,1.127-50.966,8.882-75.3a260.488,260.488,0,0,1,12.3-31.318,74,74,0,0,1,16.6-23.876c4.728-4.247,14.977-12.317,21.7-8.051C2392.267,1141.577,2392.028,1144.827,2390.754,1148Z" transform="translate(-623.31 -464.371)" fill="#fff"/>
      <path id="Path_3435" d="M2368.151,1195.618a207.2,207.2,0,0,1-14.754,21.217c-2.456,3.213-4.949,6.389-7.4,9.6-1.164,1.514-2.457,3.028-3.527,4.653.665-2.677,1.329-5.337,2.013-8.014,3.269-12.834,6.426-25.76,11.3-38.1a256.6,256.6,0,0,1,17.635-34.55c.167-.3-.3-.5-.48-.221-5.374,8.827-10.8,17.635-15.327,26.942a142.6,142.6,0,0,0-6.5,15.973,246.576,246.576,0,0,1,8.661-34.144c.037-.093-.111-.166-.148-.074a116.543,116.543,0,0,0-8.975,35.51.068.068,0,0,0,.019.055q-1.663,4.931-3.047,9.972c-4.007,14.2-7.516,28.548-10.766,42.952a152.363,152.363,0,0,1,2.456-28.235c.037-.221-.277-.259-.333-.055a89.786,89.786,0,0,0-2.456,29.767c-1.237,5.484-2.437,10.95-3.6,16.453-2.493,11.707-5.558,23.618-7.017,35.491a.234.234,0,0,0,.461.074c1.736-6.408,2.789-13.055,4.21-19.537s2.9-13,4.413-19.482c2.2-9.436,4.524-18.872,6.869-28.271,1.57-3.453,4.617-6.519,6.888-9.418,2.493-3.176,5-6.352,7.423-9.584a144.381,144.381,0,0,0,12.225-18.909C2368.465,1195.581,2368.244,1195.489,2368.151,1195.618Z" transform="translate(-626.228 -454.446)" fill="#0254ba"/>
      <path id="Path_3436" d="M2356,1168.895a133.86,133.86,0,0,0-14.44,22.935c-.056.111.111.2.167.111,4.856-7.608,9.639-15.29,14.5-22.916C2356.31,1168.895,2356.087,1168.765,2356,1168.895Z" transform="translate(-612.983 -438.562)" fill="#0254ba"/>
      <path id="Path_3437" d="M2294.216,1169.694c3.287,5.669,7.054,12.465,5.632,19.279-.9,4.3-4.044,7.792-4.616,12.188-1.274,9.695,8.383,16.1,15.382,20.682,17.432,11.43,41.345,21.642,44.5,45,.111.831,1.551.628,1.44-.185a.344.344,0,0,0-.037-.147c.037-.056.093-.074.093-.129a89.275,89.275,0,0,0-.333-35.676c-2.6-12.04-7.848-22.861-14.053-33.442-10.488-17.893-21.6-36.23-37.467-49.932-4.4-3.786-13.388-10.618-16.878-2.05C2284.5,1153.592,2290.19,1162.788,2294.216,1169.694Z" transform="translate(-659.284 -462.001)" fill="#fff"/>
      <path id="Path_3438" d="M2299.583,1188.534c11.56,12.52,29.933,19.537,39.887,33.553a140.372,140.372,0,0,0-30.654-57.577.457.457,0,0,1,.646-.646,113.3,113.3,0,0,1,25.04,36.286,162.152,162.152,0,0,0-10.784-27.588.3.3,0,0,1,.517-.3,105.439,105.439,0,0,1,11.634,31c13.111,31.743,14.33,68.952,11.578,102.412-.037.48-.775.5-.757,0,.757-26.369.332-53.182-6-78.924-.129-.535-.277-1.071-.406-1.606-10.821-15.087-29.121-22.085-40.884-36.415C2299.27,1188.608,2299.473,1188.4,2299.583,1188.534Z" transform="translate(-648.698 -442.893)" fill="#0254ba"/>
      <path id="Path_3439" d="M2298.227,1171.366c6.075,5.577,12.04,11.264,18.115,16.823.055.055-.019.166-.093.111a88.248,88.248,0,0,1-18.392-16.582.263.263,0,0,1,.037-.369A.311.311,0,0,1,2298.227,1171.366Z" transform="translate(-650.018 -436.472)" fill="#0254ba"/>
      <path id="Path_3440" d="M2297.666,1158.322a189.671,189.671,0,0,0,18.152,24.966.1.1,0,0,1-.019.148.09.09,0,0,1-.129,0,87.84,87.84,0,0,1-18.318-24.929.187.187,0,0,1,.074-.259A.182.182,0,0,1,2297.666,1158.322Z" transform="translate(-650.418 -447.544)" fill="#0254ba"/>
      <path id="Path_3441" d="M2312.31,1286.15h53.145l-7.165-71.5h-37.8Z" transform="translate(-637.732 -399.78)" fill="#fff"/>
      <path id="Path_3442" d="M2316.02,1226.265h40.311l-1.163-11.615h-37.8Z" transform="translate(-634.592 -399.78)" fill="#cbcbcb"/>
      <rect id="Rectangle_582" width="49.821" height="11.412" transform="translate(1676.239 806.948)" fill="#f4f4f4"/>
    </g>
  </g>
</svg>
